<?xml version="1.0" standalone="no"?>
<!DOCTYPE svg PUBLIC "-//W3C//DTD SVG 20010904//EN"
 "http://www.w3.org/TR/2001/REC-SVG-20010904/DTD/svg10.dtd">
<svg version="1.0" xmlns="http://www.w3.org/2000/svg"
 width="204.000000pt" height="213.000000pt" viewBox="0 0 204.000000 213.000000"
 preserveAspectRatio="xMidYMid meet">
<metadata>
Created by potrace 1.16, written by Peter Selinger 2001-2019
</metadata>
<g transform="translate(0.000000,213.000000) scale(0.100000,-0.100000)"
fill="#000000" stroke="none">
<path d="M745 1636 c-122 -24 -197 -59 -255 -117 -43 -44 -60 -66 -55 -71 2
-2 -5 -35 -16 -73 -25 -90 -24 -127 2 -151 16 -15 18 -20 7 -29 -7 -5 -14 -19
-16 -30 -2 -11 -6 -27 -9 -35 -3 -8 -5 -29 -4 -46 1 -18 -3 -35 -8 -39 -6 -3
-9 -10 -6 -15 3 -4 -2 -13 -10 -20 -9 -8 -13 -21 -9 -36 3 -13 2 -24 -3 -24
-5 0 -9 -12 -10 -27 -1 -16 1 -21 4 -13 12 33 24 40 47 28 11 -6 27 -20 34
-30 11 -16 16 -17 29 -6 13 10 14 32 9 133 -3 66 -8 137 -12 157 -6 34 -2 40
39 82 54 54 161 110 266 138 63 18 105 22 246 22 160 0 175 -2 255 -28 102
-34 220 -94 273 -139 l39 -32 -1 -150 c-1 -158 5 -189 34 -165 9 7 29 14 45
15 29 2 30 0 30 -43 0 -28 -10 -65 -26 -98 -18 -36 -28 -78 -33 -139 -9 -95
-20 -117 -50 -98 -28 17 -35 4 -60 -111 -27 -128 -65 -209 -130 -274 -51 -51
-59 -66 -42 -77 5 -3 101 -8 213 -12 112 -3 204 -9 206 -12 4 -12 87 1 105 17
15 13 15 17 2 31 -8 9 -12 26 -9 37 4 14 -6 36 -31 68 -30 40 -35 52 -29 80 3
21 1 36 -5 41 -6 3 -9 10 -6 15 3 5 -1 23 -10 40 -8 16 -13 30 -9 30 4 0 2 6
-4 13 -6 7 -11 38 -11 69 0 31 -4 65 -10 75 -13 26 -20 102 -10 109 5 3 3 17
-5 32 -7 15 -14 65 -15 115 -1 48 -7 96 -13 107 -8 13 -9 28 -2 52 6 20 7 47
2 68 -5 19 -9 41 -10 48 -1 6 -5 12 -10 12 -12 0 -10 44 4 58 9 9 8 13 -4 17
-12 5 -15 21 -14 67 1 36 7 63 13 65 19 7 -11 89 -51 137 -123 151 -555 230
-891 162z"/>
<path d="M664 1190 c-25 -10 -64 -57 -64 -77 0 -11 4 -11 23 1 45 30 106 23
226 -27 70 -29 75 -29 87 -12 18 24 2 53 -34 61 -22 4 -157 43 -205 59 -6 2
-22 0 -33 -5z"/>
<path d="M1360 1181 c-8 -5 -53 -19 -100 -32 -111 -29 -144 -57 -106 -88 11
-10 22 -9 47 5 50 25 169 64 198 64 14 0 39 -7 55 -15 36 -19 43 -13 26 21
-24 43 -84 66 -120 45z"/>
<path d="M341 850 c-1 -26 -5 -50 -10 -55 -5 -6 -12 -35 -15 -65 -6 -53 -15
-90 -38 -155 -6 -16 -12 -50 -13 -73 -2 -24 -8 -49 -14 -55 -6 -6 -11 -19 -11
-29 0 -10 -5 -18 -11 -18 -5 0 -8 -4 -5 -9 6 -9 -7 -56 -30 -108 -8 -17 -14
-35 -14 -40 0 -5 -14 -31 -31 -58 l-31 -49 28 -23 c16 -13 36 -23 44 -24 32
-1 55 -8 58 -17 1 -5 21 -6 45 -2 23 5 69 11 102 14 33 3 89 10 125 15 36 6
88 10 117 10 28 -1 57 2 63 6 6 4 -9 28 -40 62 -28 31 -60 74 -71 96 -22 43
-69 215 -69 252 0 30 -26 53 -42 37 -33 -33 -58 14 -58 108 0 46 -7 70 -31
116 -17 33 -35 70 -39 84 -7 21 -8 17 -9 -20z"/>
<path d="M875 534 c-21 -7 -65 -39 -99 -72 -66 -64 -93 -82 -125 -82 -29 0
-26 -14 4 -28 30 -14 49 -8 140 48 73 45 188 75 219 58 11 -6 16 -5 16 3 0 9
4 8 15 -1 8 -6 19 -9 24 -5 19 11 115 -22 186 -64 74 -44 120 -57 160 -47 34
9 31 19 -7 38 -18 9 -64 44 -103 78 -38 34 -83 68 -100 75 -41 18 -279 17
-330 -1z"/>
<path d="M761 283 c-14 -47 -14 -123 -1 -143 5 -8 10 -12 10 -8 0 12 50 -38
50 -51 0 -6 17 -26 38 -46 l37 -34 140 -1 141 0 42 39 c23 22 42 48 42 58 0
22 43 67 53 56 15 -14 11 106 -5 146 -7 21 -11 23 -18 11 -6 -8 -10 -23 -10
-32 0 -43 -53 -129 -101 -164 -44 -32 -56 -36 -121 -38 -92 -4 -119 4 -175 50
-47 38 -93 122 -93 168 0 38 -18 31 -29 -11z"/>
<path d="M1000 307 c-33 -16 -37 -58 -10 -101 31 -51 49 -53 87 -12 44 47 45
89 3 111 -35 18 -47 19 -80 2z"/>
</g>
</svg>
